<svg xmlns="http://www.w3.org/2000/svg" id="export" class="canvas" preserveAspectRatio="xMidYMid meet" style="" width="150" height="1540"><rect id="background" fill="#fff" pointer-events="all" cursor="default" width="150" height="1540"/><g id="origin" transform="translate(6.81015625, 6.81015625) scale(1)"><g id="clusters" class="clusters"/><g id="edge-paths" class="edge-paths"><defs><marker id="arrowhead-vee" viewBox="0 0 10 10" refX="9" refY="5" markerUnits="strokeWidth" markerWidth="8" markerHeight="6" orient="auto" style="fill: rgb(0, 0, 0);"><path d="M 0 0 L 10 5 L 0 10 L 4 5 z" style="stroke-width: 1;"/></marker><marker id="arrowhead-vee-select" viewBox="0 0 10 10" refX="9" refY="5" markerUnits="strokeWidth" markerWidth="8" markerHeight="6" orient="auto" style="fill: rgb(238, 0, 0);"><path d="M 0 0 L 10 5 L 0 10 L 4 5 z" style="stroke-width: 1;"/></marker></defs></g><g id="edge-labels" class="edge-labels"/><g id="nodes" class="nodes"><g id="node-name-conv1" class="node graph-node" transform="translate(18.0703125,1488)" style="opacity: 1;"><g class="node-item node-item-type" transform="translate(0,0)"><path d="M5,0h90.0625a5,5 0 0 1 5,5v15a0,0 0 0 1 0,0h-100.0625a0,0 0 0 1 0,0v-15a5,5 0 0 1 5,-5z" style="stroke: rgb(0, 0, 0); fill: rgb(0, 0, 0); stroke-width: 0;"/><text x="6" y="13" style="font-family: -apple-system, BlinkMacSystemFont, &quot;Segoe WPC&quot;, &quot;Segoe UI&quot;, Ubuntu, &quot;Droid Sans&quot;, sans-serif, &quot;PingFang SC&quot;; font-size: 11px; text-rendering: geometricprecision; fill: rgb(255, 255, 255);">Module</text><title>conv1</title></g><g class="node-attribute" transform="translate(0,20)"><path d="M0,0h100.0625a0,0 0 0 1 0,0v13a5,5 0 0 1 -5,5h-90.0625a5,5 0 0 1 -5,-5v-13a0,0 0 0 1 0,0z" style="stroke: rgb(0, 0, 0); fill: rgb(255, 255, 255); stroke-width: 0;"/><text id="initializer-conv1.weight" xml:space="preserve" x="6" y="12" style="font-family: -apple-system, BlinkMacSystemFont, &quot;Segoe WPC&quot;, &quot;Segoe UI&quot;, Ubuntu, &quot;Droid Sans&quot;, sans-serif, &quot;PingFang SC&quot;; font-size: 9px; font-weight: normal; text-rendering: geometricprecision;"><title>float32[16,3,3,3]</title><tspan style="font-weight: bold;">weight</tspan><tspan>〈16×3×3×3〉</tspan></text><line class="node" x1="0" x2="100.0625" y1="0" y2="0" style="stroke: rgb(51, 51, 51); fill: none; stroke-width: 1px;"/></g><path class="node border" d="M5,0h90.0625a5,5 0 0 1 5,5v28a5,5 0 0 1 -5,5h-90.0625a5,5 0 0 1 -5,-5v-28a5,5 0 0 1 5,-5z" style="stroke: rgb(51, 51, 51); fill: none; stroke-width: 1px;"/></g><g id="node-name-bn1" class="node graph-node" transform="translate(0,1382)" style="opacity: 1;"><g class="node-item node-item-type" transform="translate(0,0)"><path d="M5,0h126.203125a5,5 0 0 1 5,5v15a0,0 0 0 1 0,0h-136.203125a0,0 0 0 1 0,0v-15a5,5 0 0 1 5,-5z" style="stroke: rgb(0, 0, 0); fill: rgb(0, 0, 0); stroke-width: 0;"/><text x="6" y="13" style="font-family: -apple-system, BlinkMacSystemFont, &quot;Segoe WPC&quot;, &quot;Segoe UI&quot;, Ubuntu, &quot;Droid Sans&quot;, sans-serif, &quot;PingFang SC&quot;; font-size: 11px; text-rendering: geometricprecision; fill: rgb(255, 255, 255);">Module</text><title>bn1</title></g><g class="node-attribute" transform="translate(0,20)"><path d="M0,0h136.203125a0,0 0 0 1 0,0v61a5,5 0 0 1 -5,5h-126.203125a5,5 0 0 1 -5,-5v-61a0,0 0 0 1 0,0z" style="stroke: rgb(0, 0, 0); fill: rgb(255, 255, 255); stroke-width: 0;"/><text id="initializer-bn1.weight" xml:space="preserve" x="6" y="12" style="font-family: -apple-system, BlinkMacSystemFont, &quot;Segoe WPC&quot;, &quot;Segoe UI&quot;, Ubuntu, &quot;Droid Sans&quot;, sans-serif, &quot;PingFang SC&quot;; font-size: 9px; font-weight: normal; text-rendering: geometricprecision;"><title>float32[16]</title><tspan style="font-weight: bold;">weight</tspan><tspan>〈16〉</tspan></text><text id="initializer-bn1.bias" xml:space="preserve" x="6" y="24" style="font-family: -apple-system, BlinkMacSystemFont, &quot;Segoe WPC&quot;, &quot;Segoe UI&quot;, Ubuntu, &quot;Droid Sans&quot;, sans-serif, &quot;PingFang SC&quot;; font-size: 9px; font-weight: normal; text-rendering: geometricprecision;"><title>float32[16]</title><tspan style="font-weight: bold;">bias</tspan><tspan>〈16〉</tspan></text><text id="initializer-bn1.running_mean" xml:space="preserve" x="6" y="36" style="font-family: -apple-system, BlinkMacSystemFont, &quot;Segoe WPC&quot;, &quot;Segoe UI&quot;, Ubuntu, &quot;Droid Sans&quot;, sans-serif, &quot;PingFang SC&quot;; font-size: 9px; font-weight: normal; text-rendering: geometricprecision;"><title>float32[16]</title><tspan style="font-weight: bold;">running_mean</tspan><tspan>〈16〉</tspan></text><text id="initializer-bn1.running_var" xml:space="preserve" x="6" y="48" style="font-family: -apple-system, BlinkMacSystemFont, &quot;Segoe WPC&quot;, &quot;Segoe UI&quot;, Ubuntu, &quot;Droid Sans&quot;, sans-serif, &quot;PingFang SC&quot;; font-size: 9px; font-weight: normal; text-rendering: geometricprecision;"><title>float32[16]</title><tspan style="font-weight: bold;">running_var</tspan><tspan>〈16〉</tspan></text><text id="initializer-bn1.num_batches_tracked" xml:space="preserve" x="6" y="60" style="font-family: -apple-system, BlinkMacSystemFont, &quot;Segoe WPC&quot;, &quot;Segoe UI&quot;, Ubuntu, &quot;Droid Sans&quot;, sans-serif, &quot;PingFang SC&quot;; font-size: 9px; font-weight: normal; text-rendering: geometricprecision;"><title>int64</title><tspan>num_batches_tracked</tspan><tspan> = 23461</tspan></text><line class="node" x1="0" x2="136.203125" y1="0" y2="0" style="stroke: rgb(51, 51, 51); fill: none; stroke-width: 1px;"/></g><path class="node border" d="M5,0h126.203125a5,5 0 0 1 5,5v76a5,5 0 0 1 -5,5h-126.203125a5,5 0 0 1 -5,-5v-76a5,5 0 0 1 5,-5z" style="stroke: rgb(51, 51, 51); fill: none; stroke-width: 1px;"/></g><g id="node-name-layer1.0.conv1" class="node graph-node" transform="translate(15.53125,1324)" style="opacity: 1;"><g class="node-item node-item-type" transform="translate(0,0)"><path d="M5,0h95.140625a5,5 0 0 1 5,5v15a0,0 0 0 1 0,0h-105.140625a0,0 0 0 1 0,0v-15a5,5 0 0 1 5,-5z" style="stroke: rgb(0, 0, 0); fill: rgb(0, 0, 0); stroke-width: 0;"/><text x="6" y="13" style="font-family: -apple-system, BlinkMacSystemFont, &quot;Segoe WPC&quot;, &quot;Segoe UI&quot;, Ubuntu, &quot;Droid Sans&quot;, sans-serif, &quot;PingFang SC&quot;; font-size: 11px; text-rendering: geometricprecision; fill: rgb(255, 255, 255);">Module</text><title>layer1.0.conv1</title></g><g class="node-attribute" transform="translate(0,20)"><path d="M0,0h105.140625a0,0 0 0 1 0,0v13a5,5 0 0 1 -5,5h-95.140625a5,5 0 0 1 -5,-5v-13a0,0 0 0 1 0,0z" style="stroke: rgb(0, 0, 0); fill: rgb(255, 255, 255); stroke-width: 0;"/><text id="initializer-layer1.0.conv1.weight" xml:space="preserve" x="6" y="12" style="font-family: -apple-system, BlinkMacSystemFont, &quot;Segoe WPC&quot;, &quot;Segoe UI&quot;, Ubuntu, &quot;Droid Sans&quot;, sans-serif, &quot;PingFang SC&quot;; font-size: 9px; font-weight: normal; text-rendering: geometricprecision;"><title>float32[16,16,3,3]</title><tspan style="font-weight: bold;">weight</tspan><tspan>〈16×16×3×3〉</tspan></text><line class="node" x1="0" x2="105.140625" y1="0" y2="0" style="stroke: rgb(51, 51, 51); fill: none; stroke-width: 1px;"/></g><path class="node border" d="M5,0h95.140625a5,5 0 0 1 5,5v28a5,5 0 0 1 -5,5h-95.140625a5,5 0 0 1 -5,-5v-28a5,5 0 0 1 5,-5z" style="stroke: rgb(51, 51, 51); fill: none; stroke-width: 1px;"/></g><g id="node-name-layer1.0.bn1" class="node graph-node" transform="translate(0,1218)" style="opacity: 1;"><g class="node-item node-item-type" transform="translate(0,0)"><path d="M5,0h126.203125a5,5 0 0 1 5,5v15a0,0 0 0 1 0,0h-136.203125a0,0 0 0 1 0,0v-15a5,5 0 0 1 5,-5z" style="stroke: rgb(0, 0, 0); fill: rgb(0, 0, 0); stroke-width: 0;"/><text x="6" y="13" style="font-family: -apple-system, BlinkMacSystemFont, &quot;Segoe WPC&quot;, &quot;Segoe UI&quot;, Ubuntu, &quot;Droid Sans&quot;, sans-serif, &quot;PingFang SC&quot;; font-size: 11px; text-rendering: geometricprecision; fill: rgb(255, 255, 255);">Module</text><title>layer1.0.bn1</title></g><g class="node-attribute" transform="translate(0,20)"><path d="M0,0h136.203125a0,0 0 0 1 0,0v61a5,5 0 0 1 -5,5h-126.203125a5,5 0 0 1 -5,-5v-61a0,0 0 0 1 0,0z" style="stroke: rgb(0, 0, 0); fill: rgb(255, 255, 255); stroke-width: 0;"/><text id="initializer-layer1.0.bn1.weight" xml:space="preserve" x="6" y="12" style="font-family: -apple-system, BlinkMacSystemFont, &quot;Segoe WPC&quot;, &quot;Segoe UI&quot;, Ubuntu, &quot;Droid Sans&quot;, sans-serif, &quot;PingFang SC&quot;; font-size: 9px; font-weight: normal; text-rendering: geometricprecision;"><title>float32[16]</title><tspan style="font-weight: bold;">weight</tspan><tspan>〈16〉</tspan></text><text id="initializer-layer1.0.bn1.bias" xml:space="preserve" x="6" y="24" style="font-family: -apple-system, BlinkMacSystemFont, &quot;Segoe WPC&quot;, &quot;Segoe UI&quot;, Ubuntu, &quot;Droid Sans&quot;, sans-serif, &quot;PingFang SC&quot;; font-size: 9px; font-weight: normal; text-rendering: geometricprecision;"><title>float32[16]</title><tspan style="font-weight: bold;">bias</tspan><tspan>〈16〉</tspan></text><text id="initializer-layer1.0.bn1.running_mean" xml:space="preserve" x="6" y="36" style="font-family: -apple-system, BlinkMacSystemFont, &quot;Segoe WPC&quot;, &quot;Segoe UI&quot;, Ubuntu, &quot;Droid Sans&quot;, sans-serif, &quot;PingFang SC&quot;; font-size: 9px; font-weight: normal; text-rendering: geometricprecision;"><title>float32[16]</title><tspan style="font-weight: bold;">running_mean</tspan><tspan>〈16〉</tspan></text><text id="initializer-layer1.0.bn1.running_var" xml:space="preserve" x="6" y="48" style="font-family: -apple-system, BlinkMacSystemFont, &quot;Segoe WPC&quot;, &quot;Segoe UI&quot;, Ubuntu, &quot;Droid Sans&quot;, sans-serif, &quot;PingFang SC&quot;; font-size: 9px; font-weight: normal; text-rendering: geometricprecision;"><title>float32[16]</title><tspan style="font-weight: bold;">running_var</tspan><tspan>〈16〉</tspan></text><text id="initializer-layer1.0.bn1.num_batches_tracked" xml:space="preserve" x="6" y="60" style="font-family: -apple-system, BlinkMacSystemFont, &quot;Segoe WPC&quot;, &quot;Segoe UI&quot;, Ubuntu, &quot;Droid Sans&quot;, sans-serif, &quot;PingFang SC&quot;; font-size: 9px; font-weight: normal; text-rendering: geometricprecision;"><title>int64</title><tspan>num_batches_tracked</tspan><tspan> = 23461</tspan></text><line class="node" x1="0" x2="136.203125" y1="0" y2="0" style="stroke: rgb(51, 51, 51); fill: none; stroke-width: 1px;"/></g><path class="node border" d="M5,0h126.203125a5,5 0 0 1 5,5v76a5,5 0 0 1 -5,5h-126.203125a5,5 0 0 1 -5,-5v-76a5,5 0 0 1 5,-5z" style="stroke: rgb(51, 51, 51); fill: none; stroke-width: 1px;"/></g><g id="node-name-layer1.0.conv2" class="node graph-node" transform="translate(15.53125,1160)" style="opacity: 1;"><g class="node-item node-item-type" transform="translate(0,0)"><path d="M5,0h95.140625a5,5 0 0 1 5,5v15a0,0 0 0 1 0,0h-105.140625a0,0 0 0 1 0,0v-15a5,5 0 0 1 5,-5z" style="stroke: rgb(0, 0, 0); fill: rgb(0, 0, 0); stroke-width: 0;"/><text x="6" y="13" style="font-family: -apple-system, BlinkMacSystemFont, &quot;Segoe WPC&quot;, &quot;Segoe UI&quot;, Ubuntu, &quot;Droid Sans&quot;, sans-serif, &quot;PingFang SC&quot;; font-size: 11px; text-rendering: geometricprecision; fill: rgb(255, 255, 255);">Module</text><title>layer1.0.conv2</title></g><g class="node-attribute" transform="translate(0,20)"><path d="M0,0h105.140625a0,0 0 0 1 0,0v13a5,5 0 0 1 -5,5h-95.140625a5,5 0 0 1 -5,-5v-13a0,0 0 0 1 0,0z" style="stroke: rgb(0, 0, 0); fill: rgb(255, 255, 255); stroke-width: 0;"/><text id="initializer-layer1.0.conv2.weight" xml:space="preserve" x="6" y="12" style="font-family: -apple-system, BlinkMacSystemFont, &quot;Segoe WPC&quot;, &quot;Segoe UI&quot;, Ubuntu, &quot;Droid Sans&quot;, sans-serif, &quot;PingFang SC&quot;; font-size: 9px; font-weight: normal; text-rendering: geometricprecision;"><title>float32[16,16,3,3]</title><tspan style="font-weight: bold;">weight</tspan><tspan>〈16×16×3×3〉</tspan></text><line class="node" x1="0" x2="105.140625" y1="0" y2="0" style="stroke: rgb(51, 51, 51); fill: none; stroke-width: 1px;"/></g><path class="node border" d="M5,0h95.140625a5,5 0 0 1 5,5v28a5,5 0 0 1 -5,5h-95.140625a5,5 0 0 1 -5,-5v-28a5,5 0 0 1 5,-5z" style="stroke: rgb(51, 51, 51); fill: none; stroke-width: 1px;"/></g><g id="node-name-layer1.0.bn2" class="node graph-node" transform="translate(0,1054)" style="opacity: 1;"><g class="node-item node-item-type" transform="translate(0,0)"><path d="M5,0h126.203125a5,5 0 0 1 5,5v15a0,0 0 0 1 0,0h-136.203125a0,0 0 0 1 0,0v-15a5,5 0 0 1 5,-5z" style="stroke: rgb(0, 0, 0); fill: rgb(0, 0, 0); stroke-width: 0;"/><text x="6" y="13" style="font-family: -apple-system, BlinkMacSystemFont, &quot;Segoe WPC&quot;, &quot;Segoe UI&quot;, Ubuntu, &quot;Droid Sans&quot;, sans-serif, &quot;PingFang SC&quot;; font-size: 11px; text-rendering: geometricprecision; fill: rgb(255, 255, 255);">Module</text><title>layer1.0.bn2</title></g><g class="node-attribute" transform="translate(0,20)"><path d="M0,0h136.203125a0,0 0 0 1 0,0v61a5,5 0 0 1 -5,5h-126.203125a5,5 0 0 1 -5,-5v-61a0,0 0 0 1 0,0z" style="stroke: rgb(0, 0, 0); fill: rgb(255, 255, 255); stroke-width: 0;"/><text id="initializer-layer1.0.bn2.weight" xml:space="preserve" x="6" y="12" style="font-family: -apple-system, BlinkMacSystemFont, &quot;Segoe WPC&quot;, &quot;Segoe UI&quot;, Ubuntu, &quot;Droid Sans&quot;, sans-serif, &quot;PingFang SC&quot;; font-size: 9px; font-weight: normal; text-rendering: geometricprecision;"><title>float32[16]</title><tspan style="font-weight: bold;">weight</tspan><tspan>〈16〉</tspan></text><text id="initializer-layer1.0.bn2.bias" xml:space="preserve" x="6" y="24" style="font-family: -apple-system, BlinkMacSystemFont, &quot;Segoe WPC&quot;, &quot;Segoe UI&quot;, Ubuntu, &quot;Droid Sans&quot;, sans-serif, &quot;PingFang SC&quot;; font-size: 9px; font-weight: normal; text-rendering: geometricprecision;"><title>float32[16]</title><tspan style="font-weight: bold;">bias</tspan><tspan>〈16〉</tspan></text><text id="initializer-layer1.0.bn2.running_mean" xml:space="preserve" x="6" y="36" style="font-family: -apple-system, BlinkMacSystemFont, &quot;Segoe WPC&quot;, &quot;Segoe UI&quot;, Ubuntu, &quot;Droid Sans&quot;, sans-serif, &quot;PingFang SC&quot;; font-size: 9px; font-weight: normal; text-rendering: geometricprecision;"><title>float32[16]</title><tspan style="font-weight: bold;">running_mean</tspan><tspan>〈16〉</tspan></text><text id="initializer-layer1.0.bn2.running_var" xml:space="preserve" x="6" y="48" style="font-family: -apple-system, BlinkMacSystemFont, &quot;Segoe WPC&quot;, &quot;Segoe UI&quot;, Ubuntu, &quot;Droid Sans&quot;, sans-serif, &quot;PingFang SC&quot;; font-size: 9px; font-weight: normal; text-rendering: geometricprecision;"><title>float32[16]</title><tspan style="font-weight: bold;">running_var</tspan><tspan>〈16〉</tspan></text><text id="initializer-layer1.0.bn2.num_batches_tracked" xml:space="preserve" x="6" y="60" style="font-family: -apple-system, BlinkMacSystemFont, &quot;Segoe WPC&quot;, &quot;Segoe UI&quot;, Ubuntu, &quot;Droid Sans&quot;, sans-serif, &quot;PingFang SC&quot;; font-size: 9px; font-weight: normal; text-rendering: geometricprecision;"><title>int64</title><tspan>num_batches_tracked</tspan><tspan> = 23461</tspan></text><line class="node" x1="0" x2="136.203125" y1="0" y2="0" style="stroke: rgb(51, 51, 51); fill: none; stroke-width: 1px;"/></g><path class="node border" d="M5,0h126.203125a5,5 0 0 1 5,5v76a5,5 0 0 1 -5,5h-126.203125a5,5 0 0 1 -5,-5v-76a5,5 0 0 1 5,-5z" style="stroke: rgb(51, 51, 51); fill: none; stroke-width: 1px;"/></g><g id="node-name-layer2.0.conv1" class="node graph-node" transform="translate(15.53125,996)" style="opacity: 1;"><g class="node-item node-item-type" transform="translate(0,0)"><path d="M5,0h95.140625a5,5 0 0 1 5,5v15a0,0 0 0 1 0,0h-105.140625a0,0 0 0 1 0,0v-15a5,5 0 0 1 5,-5z" style="stroke: rgb(0, 0, 0); fill: rgb(0, 0, 0); stroke-width: 0;"/><text x="6" y="13" style="font-family: -apple-system, BlinkMacSystemFont, &quot;Segoe WPC&quot;, &quot;Segoe UI&quot;, Ubuntu, &quot;Droid Sans&quot;, sans-serif, &quot;PingFang SC&quot;; font-size: 11px; text-rendering: geometricprecision; fill: rgb(255, 255, 255);">Module</text><title>layer2.0.conv1</title></g><g class="node-attribute" transform="translate(0,20)"><path d="M0,0h105.140625a0,0 0 0 1 0,0v13a5,5 0 0 1 -5,5h-95.140625a5,5 0 0 1 -5,-5v-13a0,0 0 0 1 0,0z" style="stroke: rgb(0, 0, 0); fill: rgb(255, 255, 255); stroke-width: 0;"/><text id="initializer-layer2.0.conv1.weight" xml:space="preserve" x="6" y="12" style="font-family: -apple-system, BlinkMacSystemFont, &quot;Segoe WPC&quot;, &quot;Segoe UI&quot;, Ubuntu, &quot;Droid Sans&quot;, sans-serif, &quot;PingFang SC&quot;; font-size: 9px; font-weight: normal; text-rendering: geometricprecision;"><title>float32[32,16,3,3]</title><tspan style="font-weight: bold;">weight</tspan><tspan>〈32×16×3×3〉</tspan></text><line class="node" x1="0" x2="105.140625" y1="0" y2="0" style="stroke: rgb(51, 51, 51); fill: none; stroke-width: 1px;"/></g><path class="node border" d="M5,0h95.140625a5,5 0 0 1 5,5v28a5,5 0 0 1 -5,5h-95.140625a5,5 0 0 1 -5,-5v-28a5,5 0 0 1 5,-5z" style="stroke: rgb(51, 51, 51); fill: none; stroke-width: 1px;"/></g><g id="node-name-layer2.0.bn1" class="node graph-node" transform="translate(0,890)" style="opacity: 1;"><g class="node-item node-item-type" transform="translate(0,0)"><path d="M5,0h126.203125a5,5 0 0 1 5,5v15a0,0 0 0 1 0,0h-136.203125a0,0 0 0 1 0,0v-15a5,5 0 0 1 5,-5z" style="stroke: rgb(0, 0, 0); fill: rgb(0, 0, 0); stroke-width: 0;"/><text x="6" y="13" style="font-family: -apple-system, BlinkMacSystemFont, &quot;Segoe WPC&quot;, &quot;Segoe UI&quot;, Ubuntu, &quot;Droid Sans&quot;, sans-serif, &quot;PingFang SC&quot;; font-size: 11px; text-rendering: geometricprecision; fill: rgb(255, 255, 255);">Module</text><title>layer2.0.bn1</title></g><g class="node-attribute" transform="translate(0,20)"><path d="M0,0h136.203125a0,0 0 0 1 0,0v61a5,5 0 0 1 -5,5h-126.203125a5,5 0 0 1 -5,-5v-61a0,0 0 0 1 0,0z" style="stroke: rgb(0, 0, 0); fill: rgb(255, 255, 255); stroke-width: 0;"/><text id="initializer-layer2.0.bn1.weight" xml:space="preserve" x="6" y="12" style="font-family: -apple-system, BlinkMacSystemFont, &quot;Segoe WPC&quot;, &quot;Segoe UI&quot;, Ubuntu, &quot;Droid Sans&quot;, sans-serif, &quot;PingFang SC&quot;; font-size: 9px; font-weight: normal; text-rendering: geometricprecision;"><title>float32[32]</title><tspan style="font-weight: bold;">weight</tspan><tspan>〈32〉</tspan></text><text id="initializer-layer2.0.bn1.bias" xml:space="preserve" x="6" y="24" style="font-family: -apple-system, BlinkMacSystemFont, &quot;Segoe WPC&quot;, &quot;Segoe UI&quot;, Ubuntu, &quot;Droid Sans&quot;, sans-serif, &quot;PingFang SC&quot;; font-size: 9px; font-weight: normal; text-rendering: geometricprecision;"><title>float32[32]</title><tspan style="font-weight: bold;">bias</tspan><tspan>〈32〉</tspan></text><text id="initializer-layer2.0.bn1.running_mean" xml:space="preserve" x="6" y="36" style="font-family: -apple-system, BlinkMacSystemFont, &quot;Segoe WPC&quot;, &quot;Segoe UI&quot;, Ubuntu, &quot;Droid Sans&quot;, sans-serif, &quot;PingFang SC&quot;; font-size: 9px; font-weight: normal; text-rendering: geometricprecision;"><title>float32[32]</title><tspan style="font-weight: bold;">running_mean</tspan><tspan>〈32〉</tspan></text><text id="initializer-layer2.0.bn1.running_var" xml:space="preserve" x="6" y="48" style="font-family: -apple-system, BlinkMacSystemFont, &quot;Segoe WPC&quot;, &quot;Segoe UI&quot;, Ubuntu, &quot;Droid Sans&quot;, sans-serif, &quot;PingFang SC&quot;; font-size: 9px; font-weight: normal; text-rendering: geometricprecision;"><title>float32[32]</title><tspan style="font-weight: bold;">running_var</tspan><tspan>〈32〉</tspan></text><text id="initializer-layer2.0.bn1.num_batches_tracked" xml:space="preserve" x="6" y="60" style="font-family: -apple-system, BlinkMacSystemFont, &quot;Segoe WPC&quot;, &quot;Segoe UI&quot;, Ubuntu, &quot;Droid Sans&quot;, sans-serif, &quot;PingFang SC&quot;; font-size: 9px; font-weight: normal; text-rendering: geometricprecision;"><title>int64</title><tspan>num_batches_tracked</tspan><tspan> = 23461</tspan></text><line class="node" x1="0" x2="136.203125" y1="0" y2="0" style="stroke: rgb(51, 51, 51); fill: none; stroke-width: 1px;"/></g><path class="node border" d="M5,0h126.203125a5,5 0 0 1 5,5v76a5,5 0 0 1 -5,5h-126.203125a5,5 0 0 1 -5,-5v-76a5,5 0 0 1 5,-5z" style="stroke: rgb(51, 51, 51); fill: none; stroke-width: 1px;"/></g><g id="node-name-layer2.0.conv2" class="node graph-node" transform="translate(15.53125,832)" style="opacity: 1;"><g class="node-item node-item-type" transform="translate(0,0)"><path d="M5,0h95.140625a5,5 0 0 1 5,5v15a0,0 0 0 1 0,0h-105.140625a0,0 0 0 1 0,0v-15a5,5 0 0 1 5,-5z" style="stroke: rgb(0, 0, 0); fill: rgb(0, 0, 0); stroke-width: 0;"/><text x="6" y="13" style="font-family: -apple-system, BlinkMacSystemFont, &quot;Segoe WPC&quot;, &quot;Segoe UI&quot;, Ubuntu, &quot;Droid Sans&quot;, sans-serif, &quot;PingFang SC&quot;; font-size: 11px; text-rendering: geometricprecision; fill: rgb(255, 255, 255);">Module</text><title>layer2.0.conv2</title></g><g class="node-attribute" transform="translate(0,20)"><path d="M0,0h105.140625a0,0 0 0 1 0,0v13a5,5 0 0 1 -5,5h-95.140625a5,5 0 0 1 -5,-5v-13a0,0 0 0 1 0,0z" style="stroke: rgb(0, 0, 0); fill: rgb(255, 255, 255); stroke-width: 0;"/><text id="initializer-layer2.0.conv2.weight" xml:space="preserve" x="6" y="12" style="font-family: -apple-system, BlinkMacSystemFont, &quot;Segoe WPC&quot;, &quot;Segoe UI&quot;, Ubuntu, &quot;Droid Sans&quot;, sans-serif, &quot;PingFang SC&quot;; font-size: 9px; font-weight: normal; text-rendering: geometricprecision;"><title>float32[32,32,3,3]</title><tspan style="font-weight: bold;">weight</tspan><tspan>〈32×32×3×3〉</tspan></text><line class="node" x1="0" x2="105.140625" y1="0" y2="0" style="stroke: rgb(51, 51, 51); fill: none; stroke-width: 1px;"/></g><path class="node border" d="M5,0h95.140625a5,5 0 0 1 5,5v28a5,5 0 0 1 -5,5h-95.140625a5,5 0 0 1 -5,-5v-28a5,5 0 0 1 5,-5z" style="stroke: rgb(51, 51, 51); fill: none; stroke-width: 1px;"/></g><g id="node-name-layer2.0.bn2" class="node graph-node" transform="translate(0,726)" style="opacity: 1;"><g class="node-item node-item-type" transform="translate(0,0)"><path d="M5,0h126.203125a5,5 0 0 1 5,5v15a0,0 0 0 1 0,0h-136.203125a0,0 0 0 1 0,0v-15a5,5 0 0 1 5,-5z" style="stroke: rgb(0, 0, 0); fill: rgb(0, 0, 0); stroke-width: 0;"/><text x="6" y="13" style="font-family: -apple-system, BlinkMacSystemFont, &quot;Segoe WPC&quot;, &quot;Segoe UI&quot;, Ubuntu, &quot;Droid Sans&quot;, sans-serif, &quot;PingFang SC&quot;; font-size: 11px; text-rendering: geometricprecision; fill: rgb(255, 255, 255);">Module</text><title>layer2.0.bn2</title></g><g class="node-attribute" transform="translate(0,20)"><path d="M0,0h136.203125a0,0 0 0 1 0,0v61a5,5 0 0 1 -5,5h-126.203125a5,5 0 0 1 -5,-5v-61a0,0 0 0 1 0,0z" style="stroke: rgb(0, 0, 0); fill: rgb(255, 255, 255); stroke-width: 0;"/><text id="initializer-layer2.0.bn2.weight" xml:space="preserve" x="6" y="12" style="font-family: -apple-system, BlinkMacSystemFont, &quot;Segoe WPC&quot;, &quot;Segoe UI&quot;, Ubuntu, &quot;Droid Sans&quot;, sans-serif, &quot;PingFang SC&quot;; font-size: 9px; font-weight: normal; text-rendering: geometricprecision;"><title>float32[32]</title><tspan style="font-weight: bold;">weight</tspan><tspan>〈32〉</tspan></text><text id="initializer-layer2.0.bn2.bias" xml:space="preserve" x="6" y="24" style="font-family: -apple-system, BlinkMacSystemFont, &quot;Segoe WPC&quot;, &quot;Segoe UI&quot;, Ubuntu, &quot;Droid Sans&quot;, sans-serif, &quot;PingFang SC&quot;; font-size: 9px; font-weight: normal; text-rendering: geometricprecision;"><title>float32[32]</title><tspan style="font-weight: bold;">bias</tspan><tspan>〈32〉</tspan></text><text id="initializer-layer2.0.bn2.running_mean" xml:space="preserve" x="6" y="36" style="font-family: -apple-system, BlinkMacSystemFont, &quot;Segoe WPC&quot;, &quot;Segoe UI&quot;, Ubuntu, &quot;Droid Sans&quot;, sans-serif, &quot;PingFang SC&quot;; font-size: 9px; font-weight: normal; text-rendering: geometricprecision;"><title>float32[32]</title><tspan style="font-weight: bold;">running_mean</tspan><tspan>〈32〉</tspan></text><text id="initializer-layer2.0.bn2.running_var" xml:space="preserve" x="6" y="48" style="font-family: -apple-system, BlinkMacSystemFont, &quot;Segoe WPC&quot;, &quot;Segoe UI&quot;, Ubuntu, &quot;Droid Sans&quot;, sans-serif, &quot;PingFang SC&quot;; font-size: 9px; font-weight: normal; text-rendering: geometricprecision;"><title>float32[32]</title><tspan style="font-weight: bold;">running_var</tspan><tspan>〈32〉</tspan></text><text id="initializer-layer2.0.bn2.num_batches_tracked" xml:space="preserve" x="6" y="60" style="font-family: -apple-system, BlinkMacSystemFont, &quot;Segoe WPC&quot;, &quot;Segoe UI&quot;, Ubuntu, &quot;Droid Sans&quot;, sans-serif, &quot;PingFang SC&quot;; font-size: 9px; font-weight: normal; text-rendering: geometricprecision;"><title>int64</title><tspan>num_batches_tracked</tspan><tspan> = 23461</tspan></text><line class="node" x1="0" x2="136.203125" y1="0" y2="0" style="stroke: rgb(51, 51, 51); fill: none; stroke-width: 1px;"/></g><path class="node border" d="M5,0h126.203125a5,5 0 0 1 5,5v76a5,5 0 0 1 -5,5h-126.203125a5,5 0 0 1 -5,-5v-76a5,5 0 0 1 5,-5z" style="stroke: rgb(51, 51, 51); fill: none; stroke-width: 1px;"/></g><g id="node-name-layer2.0.shortcut.0" class="node graph-node" transform="translate(15.53125,668)" style="opacity: 1;"><g class="node-item node-item-type" transform="translate(0,0)"><path d="M5,0h95.140625a5,5 0 0 1 5,5v15a0,0 0 0 1 0,0h-105.140625a0,0 0 0 1 0,0v-15a5,5 0 0 1 5,-5z" style="stroke: rgb(0, 0, 0); fill: rgb(0, 0, 0); stroke-width: 0;"/><text x="6" y="13" style="font-family: -apple-system, BlinkMacSystemFont, &quot;Segoe WPC&quot;, &quot;Segoe UI&quot;, Ubuntu, &quot;Droid Sans&quot;, sans-serif, &quot;PingFang SC&quot;; font-size: 11px; text-rendering: geometricprecision; fill: rgb(255, 255, 255);">Module</text><title>layer2.0.shortcut.0</title></g><g class="node-attribute" transform="translate(0,20)"><path d="M0,0h105.140625a0,0 0 0 1 0,0v13a5,5 0 0 1 -5,5h-95.140625a5,5 0 0 1 -5,-5v-13a0,0 0 0 1 0,0z" style="stroke: rgb(0, 0, 0); fill: rgb(255, 255, 255); stroke-width: 0;"/><text id="initializer-layer2.0.shortcut.0.weight" xml:space="preserve" x="6" y="12" style="font-family: -apple-system, BlinkMacSystemFont, &quot;Segoe WPC&quot;, &quot;Segoe UI&quot;, Ubuntu, &quot;Droid Sans&quot;, sans-serif, &quot;PingFang SC&quot;; font-size: 9px; font-weight: normal; text-rendering: geometricprecision;"><title>float32[32,16,1,1]</title><tspan style="font-weight: bold;">weight</tspan><tspan>〈32×16×1×1〉</tspan></text><line class="node" x1="0" x2="105.140625" y1="0" y2="0" style="stroke: rgb(51, 51, 51); fill: none; stroke-width: 1px;"/></g><path class="node border" d="M5,0h95.140625a5,5 0 0 1 5,5v28a5,5 0 0 1 -5,5h-95.140625a5,5 0 0 1 -5,-5v-28a5,5 0 0 1 5,-5z" style="stroke: rgb(51, 51, 51); fill: none; stroke-width: 1px;"/></g><g id="node-name-layer2.0.shortcut.1" class="node graph-node" transform="translate(0,562)" style="opacity: 1;"><g class="node-item node-item-type" transform="translate(0,0)"><path d="M5,0h126.203125a5,5 0 0 1 5,5v15a0,0 0 0 1 0,0h-136.203125a0,0 0 0 1 0,0v-15a5,5 0 0 1 5,-5z" style="stroke: rgb(0, 0, 0); fill: rgb(0, 0, 0); stroke-width: 0;"/><text x="6" y="13" style="font-family: -apple-system, BlinkMacSystemFont, &quot;Segoe WPC&quot;, &quot;Segoe UI&quot;, Ubuntu, &quot;Droid Sans&quot;, sans-serif, &quot;PingFang SC&quot;; font-size: 11px; text-rendering: geometricprecision; fill: rgb(255, 255, 255);">Module</text><title>layer2.0.shortcut.1</title></g><g class="node-attribute" transform="translate(0,20)"><path d="M0,0h136.203125a0,0 0 0 1 0,0v61a5,5 0 0 1 -5,5h-126.203125a5,5 0 0 1 -5,-5v-61a0,0 0 0 1 0,0z" style="stroke: rgb(0, 0, 0); fill: rgb(255, 255, 255); stroke-width: 0;"/><text id="initializer-layer2.0.shortcut.1.weight" xml:space="preserve" x="6" y="12" style="font-family: -apple-system, BlinkMacSystemFont, &quot;Segoe WPC&quot;, &quot;Segoe UI&quot;, Ubuntu, &quot;Droid Sans&quot;, sans-serif, &quot;PingFang SC&quot;; font-size: 9px; font-weight: normal; text-rendering: geometricprecision;"><title>float32[32]</title><tspan style="font-weight: bold;">weight</tspan><tspan>〈32〉</tspan></text><text id="initializer-layer2.0.shortcut.1.bias" xml:space="preserve" x="6" y="24" style="font-family: -apple-system, BlinkMacSystemFont, &quot;Segoe WPC&quot;, &quot;Segoe UI&quot;, Ubuntu, &quot;Droid Sans&quot;, sans-serif, &quot;PingFang SC&quot;; font-size: 9px; font-weight: normal; text-rendering: geometricprecision;"><title>float32[32]</title><tspan style="font-weight: bold;">bias</tspan><tspan>〈32〉</tspan></text><text id="initializer-layer2.0.shortcut.1.running_mean" xml:space="preserve" x="6" y="36" style="font-family: -apple-system, BlinkMacSystemFont, &quot;Segoe WPC&quot;, &quot;Segoe UI&quot;, Ubuntu, &quot;Droid Sans&quot;, sans-serif, &quot;PingFang SC&quot;; font-size: 9px; font-weight: normal; text-rendering: geometricprecision;"><title>float32[32]</title><tspan style="font-weight: bold;">running_mean</tspan><tspan>〈32〉</tspan></text><text id="initializer-layer2.0.shortcut.1.running_var" xml:space="preserve" x="6" y="48" style="font-family: -apple-system, BlinkMacSystemFont, &quot;Segoe WPC&quot;, &quot;Segoe UI&quot;, Ubuntu, &quot;Droid Sans&quot;, sans-serif, &quot;PingFang SC&quot;; font-size: 9px; font-weight: normal; text-rendering: geometricprecision;"><title>float32[32]</title><tspan style="font-weight: bold;">running_var</tspan><tspan>〈32〉</tspan></text><text id="initializer-layer2.0.shortcut.1.num_batches_tracked" xml:space="preserve" x="6" y="60" style="font-family: -apple-system, BlinkMacSystemFont, &quot;Segoe WPC&quot;, &quot;Segoe UI&quot;, Ubuntu, &quot;Droid Sans&quot;, sans-serif, &quot;PingFang SC&quot;; font-size: 9px; font-weight: normal; text-rendering: geometricprecision;"><title>int64</title><tspan>num_batches_tracked</tspan><tspan> = 23461</tspan></text><line class="node" x1="0" x2="136.203125" y1="0" y2="0" style="stroke: rgb(51, 51, 51); fill: none; stroke-width: 1px;"/></g><path class="node border" d="M5,0h126.203125a5,5 0 0 1 5,5v76a5,5 0 0 1 -5,5h-126.203125a5,5 0 0 1 -5,-5v-76a5,5 0 0 1 5,-5z" style="stroke: rgb(51, 51, 51); fill: none; stroke-width: 1px;"/></g><g id="node-name-layer3.0.conv1" class="node graph-node" transform="translate(15.53125,504)" style="opacity: 1;"><g class="node-item node-item-type" transform="translate(0,0)"><path d="M5,0h95.140625a5,5 0 0 1 5,5v15a0,0 0 0 1 0,0h-105.140625a0,0 0 0 1 0,0v-15a5,5 0 0 1 5,-5z" style="stroke: rgb(0, 0, 0); fill: rgb(0, 0, 0); stroke-width: 0;"/><text x="6" y="13" style="font-family: -apple-system, BlinkMacSystemFont, &quot;Segoe WPC&quot;, &quot;Segoe UI&quot;, Ubuntu, &quot;Droid Sans&quot;, sans-serif, &quot;PingFang SC&quot;; font-size: 11px; text-rendering: geometricprecision; fill: rgb(255, 255, 255);">Module</text><title>layer3.0.conv1</title></g><g class="node-attribute" transform="translate(0,20)"><path d="M0,0h105.140625a0,0 0 0 1 0,0v13a5,5 0 0 1 -5,5h-95.140625a5,5 0 0 1 -5,-5v-13a0,0 0 0 1 0,0z" style="stroke: rgb(0, 0, 0); fill: rgb(255, 255, 255); stroke-width: 0;"/><text id="initializer-layer3.0.conv1.weight" xml:space="preserve" x="6" y="12" style="font-family: -apple-system, BlinkMacSystemFont, &quot;Segoe WPC&quot;, &quot;Segoe UI&quot;, Ubuntu, &quot;Droid Sans&quot;, sans-serif, &quot;PingFang SC&quot;; font-size: 9px; font-weight: normal; text-rendering: geometricprecision;"><title>float32[64,32,3,3]</title><tspan style="font-weight: bold;">weight</tspan><tspan>〈64×32×3×3〉</tspan></text><line class="node" x1="0" x2="105.140625" y1="0" y2="0" style="stroke: rgb(51, 51, 51); fill: none; stroke-width: 1px;"/></g><path class="node border" d="M5,0h95.140625a5,5 0 0 1 5,5v28a5,5 0 0 1 -5,5h-95.140625a5,5 0 0 1 -5,-5v-28a5,5 0 0 1 5,-5z" style="stroke: rgb(51, 51, 51); fill: none; stroke-width: 1px;"/></g><g id="node-name-layer3.0.bn1" class="node graph-node" transform="translate(0,398)" style="opacity: 1;"><g class="node-item node-item-type" transform="translate(0,0)"><path d="M5,0h126.203125a5,5 0 0 1 5,5v15a0,0 0 0 1 0,0h-136.203125a0,0 0 0 1 0,0v-15a5,5 0 0 1 5,-5z" style="stroke: rgb(0, 0, 0); fill: rgb(0, 0, 0); stroke-width: 0;"/><text x="6" y="13" style="font-family: -apple-system, BlinkMacSystemFont, &quot;Segoe WPC&quot;, &quot;Segoe UI&quot;, Ubuntu, &quot;Droid Sans&quot;, sans-serif, &quot;PingFang SC&quot;; font-size: 11px; text-rendering: geometricprecision; fill: rgb(255, 255, 255);">Module</text><title>layer3.0.bn1</title></g><g class="node-attribute" transform="translate(0,20)"><path d="M0,0h136.203125a0,0 0 0 1 0,0v61a5,5 0 0 1 -5,5h-126.203125a5,5 0 0 1 -5,-5v-61a0,0 0 0 1 0,0z" style="stroke: rgb(0, 0, 0); fill: rgb(255, 255, 255); stroke-width: 0;"/><text id="initializer-layer3.0.bn1.weight" xml:space="preserve" x="6" y="12" style="font-family: -apple-system, BlinkMacSystemFont, &quot;Segoe WPC&quot;, &quot;Segoe UI&quot;, Ubuntu, &quot;Droid Sans&quot;, sans-serif, &quot;PingFang SC&quot;; font-size: 9px; font-weight: normal; text-rendering: geometricprecision;"><title>float32[64]</title><tspan style="font-weight: bold;">weight</tspan><tspan>〈64〉</tspan></text><text id="initializer-layer3.0.bn1.bias" xml:space="preserve" x="6" y="24" style="font-family: -apple-system, BlinkMacSystemFont, &quot;Segoe WPC&quot;, &quot;Segoe UI&quot;, Ubuntu, &quot;Droid Sans&quot;, sans-serif, &quot;PingFang SC&quot;; font-size: 9px; font-weight: normal; text-rendering: geometricprecision;"><title>float32[64]</title><tspan style="font-weight: bold;">bias</tspan><tspan>〈64〉</tspan></text><text id="initializer-layer3.0.bn1.running_mean" xml:space="preserve" x="6" y="36" style="font-family: -apple-system, BlinkMacSystemFont, &quot;Segoe WPC&quot;, &quot;Segoe UI&quot;, Ubuntu, &quot;Droid Sans&quot;, sans-serif, &quot;PingFang SC&quot;; font-size: 9px; font-weight: normal; text-rendering: geometricprecision;"><title>float32[64]</title><tspan style="font-weight: bold;">running_mean</tspan><tspan>〈64〉</tspan></text><text id="initializer-layer3.0.bn1.running_var" xml:space="preserve" x="6" y="48" style="font-family: -apple-system, BlinkMacSystemFont, &quot;Segoe WPC&quot;, &quot;Segoe UI&quot;, Ubuntu, &quot;Droid Sans&quot;, sans-serif, &quot;PingFang SC&quot;; font-size: 9px; font-weight: normal; text-rendering: geometricprecision;"><title>float32[64]</title><tspan style="font-weight: bold;">running_var</tspan><tspan>〈64〉</tspan></text><text id="initializer-layer3.0.bn1.num_batches_tracked" xml:space="preserve" x="6" y="60" style="font-family: -apple-system, BlinkMacSystemFont, &quot;Segoe WPC&quot;, &quot;Segoe UI&quot;, Ubuntu, &quot;Droid Sans&quot;, sans-serif, &quot;PingFang SC&quot;; font-size: 9px; font-weight: normal; text-rendering: geometricprecision;"><title>int64</title><tspan>num_batches_tracked</tspan><tspan> = 23461</tspan></text><line class="node" x1="0" x2="136.203125" y1="0" y2="0" style="stroke: rgb(51, 51, 51); fill: none; stroke-width: 1px;"/></g><path class="node border" d="M5,0h126.203125a5,5 0 0 1 5,5v76a5,5 0 0 1 -5,5h-126.203125a5,5 0 0 1 -5,-5v-76a5,5 0 0 1 5,-5z" style="stroke: rgb(51, 51, 51); fill: none; stroke-width: 1px;"/></g><g id="node-name-layer3.0.conv2" class="node graph-node" transform="translate(15.53125,340)" style="opacity: 1;"><g class="node-item node-item-type" transform="translate(0,0)"><path d="M5,0h95.140625a5,5 0 0 1 5,5v15a0,0 0 0 1 0,0h-105.140625a0,0 0 0 1 0,0v-15a5,5 0 0 1 5,-5z" style="stroke: rgb(0, 0, 0); fill: rgb(0, 0, 0); stroke-width: 0;"/><text x="6" y="13" style="font-family: -apple-system, BlinkMacSystemFont, &quot;Segoe WPC&quot;, &quot;Segoe UI&quot;, Ubuntu, &quot;Droid Sans&quot;, sans-serif, &quot;PingFang SC&quot;; font-size: 11px; text-rendering: geometricprecision; fill: rgb(255, 255, 255);">Module</text><title>layer3.0.conv2</title></g><g class="node-attribute" transform="translate(0,20)"><path d="M0,0h105.140625a0,0 0 0 1 0,0v13a5,5 0 0 1 -5,5h-95.140625a5,5 0 0 1 -5,-5v-13a0,0 0 0 1 0,0z" style="stroke: rgb(0, 0, 0); fill: rgb(255, 255, 255); stroke-width: 0;"/><text id="initializer-layer3.0.conv2.weight" xml:space="preserve" x="6" y="12" style="font-family: -apple-system, BlinkMacSystemFont, &quot;Segoe WPC&quot;, &quot;Segoe UI&quot;, Ubuntu, &quot;Droid Sans&quot;, sans-serif, &quot;PingFang SC&quot;; font-size: 9px; font-weight: normal; text-rendering: geometricprecision;"><title>float32[64,64,3,3]</title><tspan style="font-weight: bold;">weight</tspan><tspan>〈64×64×3×3〉</tspan></text><line class="node" x1="0" x2="105.140625" y1="0" y2="0" style="stroke: rgb(51, 51, 51); fill: none; stroke-width: 1px;"/></g><path class="node border" d="M5,0h95.140625a5,5 0 0 1 5,5v28a5,5 0 0 1 -5,5h-95.140625a5,5 0 0 1 -5,-5v-28a5,5 0 0 1 5,-5z" style="stroke: rgb(51, 51, 51); fill: none; stroke-width: 1px;"/></g><g id="node-name-layer3.0.bn2" class="node graph-node" transform="translate(0,234)" style="opacity: 1;"><g class="node-item node-item-type" transform="translate(0,0)"><path d="M5,0h126.203125a5,5 0 0 1 5,5v15a0,0 0 0 1 0,0h-136.203125a0,0 0 0 1 0,0v-15a5,5 0 0 1 5,-5z" style="stroke: rgb(0, 0, 0); fill: rgb(0, 0, 0); stroke-width: 0;"/><text x="6" y="13" style="font-family: -apple-system, BlinkMacSystemFont, &quot;Segoe WPC&quot;, &quot;Segoe UI&quot;, Ubuntu, &quot;Droid Sans&quot;, sans-serif, &quot;PingFang SC&quot;; font-size: 11px; text-rendering: geometricprecision; fill: rgb(255, 255, 255);">Module</text><title>layer3.0.bn2</title></g><g class="node-attribute" transform="translate(0,20)"><path d="M0,0h136.203125a0,0 0 0 1 0,0v61a5,5 0 0 1 -5,5h-126.203125a5,5 0 0 1 -5,-5v-61a0,0 0 0 1 0,0z" style="stroke: rgb(0, 0, 0); fill: rgb(255, 255, 255); stroke-width: 0;"/><text id="initializer-layer3.0.bn2.weight" xml:space="preserve" x="6" y="12" style="font-family: -apple-system, BlinkMacSystemFont, &quot;Segoe WPC&quot;, &quot;Segoe UI&quot;, Ubuntu, &quot;Droid Sans&quot;, sans-serif, &quot;PingFang SC&quot;; font-size: 9px; font-weight: normal; text-rendering: geometricprecision;"><title>float32[64]</title><tspan style="font-weight: bold;">weight</tspan><tspan>〈64〉</tspan></text><text id="initializer-layer3.0.bn2.bias" xml:space="preserve" x="6" y="24" style="font-family: -apple-system, BlinkMacSystemFont, &quot;Segoe WPC&quot;, &quot;Segoe UI&quot;, Ubuntu, &quot;Droid Sans&quot;, sans-serif, &quot;PingFang SC&quot;; font-size: 9px; font-weight: normal; text-rendering: geometricprecision;"><title>float32[64]</title><tspan style="font-weight: bold;">bias</tspan><tspan>〈64〉</tspan></text><text id="initializer-layer3.0.bn2.running_mean" xml:space="preserve" x="6" y="36" style="font-family: -apple-system, BlinkMacSystemFont, &quot;Segoe WPC&quot;, &quot;Segoe UI&quot;, Ubuntu, &quot;Droid Sans&quot;, sans-serif, &quot;PingFang SC&quot;; font-size: 9px; font-weight: normal; text-rendering: geometricprecision;"><title>float32[64]</title><tspan style="font-weight: bold;">running_mean</tspan><tspan>〈64〉</tspan></text><text id="initializer-layer3.0.bn2.running_var" xml:space="preserve" x="6" y="48" style="font-family: -apple-system, BlinkMacSystemFont, &quot;Segoe WPC&quot;, &quot;Segoe UI&quot;, Ubuntu, &quot;Droid Sans&quot;, sans-serif, &quot;PingFang SC&quot;; font-size: 9px; font-weight: normal; text-rendering: geometricprecision;"><title>float32[64]</title><tspan style="font-weight: bold;">running_var</tspan><tspan>〈64〉</tspan></text><text id="initializer-layer3.0.bn2.num_batches_tracked" xml:space="preserve" x="6" y="60" style="font-family: -apple-system, BlinkMacSystemFont, &quot;Segoe WPC&quot;, &quot;Segoe UI&quot;, Ubuntu, &quot;Droid Sans&quot;, sans-serif, &quot;PingFang SC&quot;; font-size: 9px; font-weight: normal; text-rendering: geometricprecision;"><title>int64</title><tspan>num_batches_tracked</tspan><tspan> = 23461</tspan></text><line class="node" x1="0" x2="136.203125" y1="0" y2="0" style="stroke: rgb(51, 51, 51); fill: none; stroke-width: 1px;"/></g><path class="node border" d="M5,0h126.203125a5,5 0 0 1 5,5v76a5,5 0 0 1 -5,5h-126.203125a5,5 0 0 1 -5,-5v-76a5,5 0 0 1 5,-5z" style="stroke: rgb(51, 51, 51); fill: none; stroke-width: 1px;"/></g><g id="node-name-layer3.0.shortcut.0" class="node graph-node" transform="translate(15.53125,176)" style="opacity: 1;"><g class="node-item node-item-type" transform="translate(0,0)"><path d="M5,0h95.140625a5,5 0 0 1 5,5v15a0,0 0 0 1 0,0h-105.140625a0,0 0 0 1 0,0v-15a5,5 0 0 1 5,-5z" style="stroke: rgb(0, 0, 0); fill: rgb(0, 0, 0); stroke-width: 0;"/><text x="6" y="13" style="font-family: -apple-system, BlinkMacSystemFont, &quot;Segoe WPC&quot;, &quot;Segoe UI&quot;, Ubuntu, &quot;Droid Sans&quot;, sans-serif, &quot;PingFang SC&quot;; font-size: 11px; text-rendering: geometricprecision; fill: rgb(255, 255, 255);">Module</text><title>layer3.0.shortcut.0</title></g><g class="node-attribute" transform="translate(0,20)"><path d="M0,0h105.140625a0,0 0 0 1 0,0v13a5,5 0 0 1 -5,5h-95.140625a5,5 0 0 1 -5,-5v-13a0,0 0 0 1 0,0z" style="stroke: rgb(0, 0, 0); fill: rgb(255, 255, 255); stroke-width: 0;"/><text id="initializer-layer3.0.shortcut.0.weight" xml:space="preserve" x="6" y="12" style="font-family: -apple-system, BlinkMacSystemFont, &quot;Segoe WPC&quot;, &quot;Segoe UI&quot;, Ubuntu, &quot;Droid Sans&quot;, sans-serif, &quot;PingFang SC&quot;; font-size: 9px; font-weight: normal; text-rendering: geometricprecision;"><title>float32[64,32,1,1]</title><tspan style="font-weight: bold;">weight</tspan><tspan>〈64×32×1×1〉</tspan></text><line class="node" x1="0" x2="105.140625" y1="0" y2="0" style="stroke: rgb(51, 51, 51); fill: none; stroke-width: 1px;"/></g><path class="node border" d="M5,0h95.140625a5,5 0 0 1 5,5v28a5,5 0 0 1 -5,5h-95.140625a5,5 0 0 1 -5,-5v-28a5,5 0 0 1 5,-5z" style="stroke: rgb(51, 51, 51); fill: none; stroke-width: 1px;"/></g><g id="node-name-layer3.0.shortcut.1" class="node graph-node" transform="translate(0,70)" style="opacity: 1;"><g class="node-item node-item-type" transform="translate(0,0)"><path d="M5,0h126.203125a5,5 0 0 1 5,5v15a0,0 0 0 1 0,0h-136.203125a0,0 0 0 1 0,0v-15a5,5 0 0 1 5,-5z" style="stroke: rgb(0, 0, 0); fill: rgb(0, 0, 0); stroke-width: 0;"/><text x="6" y="13" style="font-family: -apple-system, BlinkMacSystemFont, &quot;Segoe WPC&quot;, &quot;Segoe UI&quot;, Ubuntu, &quot;Droid Sans&quot;, sans-serif, &quot;PingFang SC&quot;; font-size: 11px; text-rendering: geometricprecision; fill: rgb(255, 255, 255);">Module</text><title>layer3.0.shortcut.1</title></g><g class="node-attribute" transform="translate(0,20)"><path d="M0,0h136.203125a0,0 0 0 1 0,0v61a5,5 0 0 1 -5,5h-126.203125a5,5 0 0 1 -5,-5v-61a0,0 0 0 1 0,0z" style="stroke: rgb(0, 0, 0); fill: rgb(255, 255, 255); stroke-width: 0;"/><text id="initializer-layer3.0.shortcut.1.weight" xml:space="preserve" x="6" y="12" style="font-family: -apple-system, BlinkMacSystemFont, &quot;Segoe WPC&quot;, &quot;Segoe UI&quot;, Ubuntu, &quot;Droid Sans&quot;, sans-serif, &quot;PingFang SC&quot;; font-size: 9px; font-weight: normal; text-rendering: geometricprecision;"><title>float32[64]</title><tspan style="font-weight: bold;">weight</tspan><tspan>〈64〉</tspan></text><text id="initializer-layer3.0.shortcut.1.bias" xml:space="preserve" x="6" y="24" style="font-family: -apple-system, BlinkMacSystemFont, &quot;Segoe WPC&quot;, &quot;Segoe UI&quot;, Ubuntu, &quot;Droid Sans&quot;, sans-serif, &quot;PingFang SC&quot;; font-size: 9px; font-weight: normal; text-rendering: geometricprecision;"><title>float32[64]</title><tspan style="font-weight: bold;">bias</tspan><tspan>〈64〉</tspan></text><text id="initializer-layer3.0.shortcut.1.running_mean" xml:space="preserve" x="6" y="36" style="font-family: -apple-system, BlinkMacSystemFont, &quot;Segoe WPC&quot;, &quot;Segoe UI&quot;, Ubuntu, &quot;Droid Sans&quot;, sans-serif, &quot;PingFang SC&quot;; font-size: 9px; font-weight: normal; text-rendering: geometricprecision;"><title>float32[64]</title><tspan style="font-weight: bold;">running_mean</tspan><tspan>〈64〉</tspan></text><text id="initializer-layer3.0.shortcut.1.running_var" xml:space="preserve" x="6" y="48" style="font-family: -apple-system, BlinkMacSystemFont, &quot;Segoe WPC&quot;, &quot;Segoe UI&quot;, Ubuntu, &quot;Droid Sans&quot;, sans-serif, &quot;PingFang SC&quot;; font-size: 9px; font-weight: normal; text-rendering: geometricprecision;"><title>float32[64]</title><tspan style="font-weight: bold;">running_var</tspan><tspan>〈64〉</tspan></text><text id="initializer-layer3.0.shortcut.1.num_batches_tracked" xml:space="preserve" x="6" y="60" style="font-family: -apple-system, BlinkMacSystemFont, &quot;Segoe WPC&quot;, &quot;Segoe UI&quot;, Ubuntu, &quot;Droid Sans&quot;, sans-serif, &quot;PingFang SC&quot;; font-size: 9px; font-weight: normal; text-rendering: geometricprecision;"><title>int64</title><tspan>num_batches_tracked</tspan><tspan> = 23461</tspan></text><line class="node" x1="0" x2="136.203125" y1="0" y2="0" style="stroke: rgb(51, 51, 51); fill: none; stroke-width: 1px;"/></g><path class="node border" d="M5,0h126.203125a5,5 0 0 1 5,5v76a5,5 0 0 1 -5,5h-126.203125a5,5 0 0 1 -5,-5v-76a5,5 0 0 1 5,-5z" style="stroke: rgb(51, 51, 51); fill: none; stroke-width: 1px;"/></g><g id="node-name-linear" class="node graph-node" transform="translate(25.6796875,0)" style="opacity: 1;"><g class="node-item node-item-type" transform="translate(0,0)"><path d="M5,0h74.84375a5,5 0 0 1 5,5v15a0,0 0 0 1 0,0h-84.84375a0,0 0 0 1 0,0v-15a5,5 0 0 1 5,-5z" style="stroke: rgb(0, 0, 0); fill: rgb(0, 0, 0); stroke-width: 0;"/><text x="6" y="13" style="font-family: -apple-system, BlinkMacSystemFont, &quot;Segoe WPC&quot;, &quot;Segoe UI&quot;, Ubuntu, &quot;Droid Sans&quot;, sans-serif, &quot;PingFang SC&quot;; font-size: 11px; text-rendering: geometricprecision; fill: rgb(255, 255, 255);">Module</text><title>linear</title></g><g class="node-attribute" transform="translate(0,20)"><path d="M0,0h84.84375a0,0 0 0 1 0,0v25a5,5 0 0 1 -5,5h-74.84375a5,5 0 0 1 -5,-5v-25a0,0 0 0 1 0,0z" style="stroke: rgb(0, 0, 0); fill: rgb(255, 255, 255); stroke-width: 0;"/><text id="initializer-linear.weight" xml:space="preserve" x="6" y="12" style="font-family: -apple-system, BlinkMacSystemFont, &quot;Segoe WPC&quot;, &quot;Segoe UI&quot;, Ubuntu, &quot;Droid Sans&quot;, sans-serif, &quot;PingFang SC&quot;; font-size: 9px; font-weight: normal; text-rendering: geometricprecision;"><title>float32[10,64]</title><tspan style="font-weight: bold;">weight</tspan><tspan>〈10×64〉</tspan></text><text id="initializer-linear.bias" xml:space="preserve" x="6" y="24" style="font-family: -apple-system, BlinkMacSystemFont, &quot;Segoe WPC&quot;, &quot;Segoe UI&quot;, Ubuntu, &quot;Droid Sans&quot;, sans-serif, &quot;PingFang SC&quot;; font-size: 9px; font-weight: normal; text-rendering: geometricprecision;"><title>float32[10]</title><tspan style="font-weight: bold;">bias</tspan><tspan>〈10〉</tspan></text><line class="node" x1="0" x2="84.84375" y1="0" y2="0" style="stroke: rgb(51, 51, 51); fill: none; stroke-width: 1px;"/></g><path class="node border" d="M5,0h74.84375a5,5 0 0 1 5,5v40a5,5 0 0 1 -5,5h-74.84375a5,5 0 0 1 -5,-5v-40a5,5 0 0 1 5,-5z" style="stroke: rgb(51, 51, 51); fill: none; stroke-width: 1px;"/></g></g></g></svg>